<svg width="138" height="16" viewBox="0 0 138 16" fill="none" xmlns="http://www.w3.org/2000/svg">
<path d="M27.2734 7.54492V9.02832H20.4512V7.54492H27.2734ZM24.6621 4.75586V12.002H23.0693V4.75586H24.6621ZM30.5407 8.37207L29.2282 8.05078L29.7683 3.04688H35.1345V4.44141H31.1355L30.862 6.88184C31.017 6.79069 31.2312 6.70182 31.5046 6.61523C31.778 6.52409 32.0902 6.47852 32.4411 6.47852C32.9105 6.47852 33.3298 6.55599 33.6989 6.71094C34.0726 6.86133 34.3894 7.08236 34.6491 7.37402C34.9089 7.66113 35.1071 8.01204 35.2439 8.42676C35.3806 8.83691 35.4489 9.29948 35.4489 9.81445C35.4489 10.2747 35.3806 10.7054 35.2439 11.1064C35.1117 11.5075 34.9112 11.8607 34.6423 12.166C34.3734 12.4714 34.0339 12.7106 33.6237 12.8838C33.2182 13.0524 32.7374 13.1367 32.1814 13.1367C31.7667 13.1367 31.3679 13.0775 30.9851 12.959C30.6068 12.8359 30.2673 12.6559 29.9665 12.4189C29.6657 12.1774 29.4242 11.8812 29.2419 11.5303C29.0596 11.1748 28.9548 10.7669 28.9275 10.3066H30.5407C30.5818 10.6302 30.6706 10.9059 30.8073 11.1338C30.9486 11.3571 31.1355 11.528 31.3679 11.6465C31.6003 11.765 31.8692 11.8242 32.1745 11.8242C32.4525 11.8242 32.6918 11.7764 32.8923 11.6807C33.0928 11.5804 33.2592 11.4391 33.3913 11.2568C33.528 11.07 33.6283 10.8512 33.6921 10.6006C33.7605 10.3499 33.7946 10.0719 33.7946 9.7666C33.7946 9.47493 33.7559 9.20833 33.6784 8.9668C33.6055 8.72526 33.4939 8.51562 33.3435 8.33789C33.1976 8.16016 33.0131 8.02344 32.7898 7.92773C32.5665 7.82747 32.309 7.77734 32.0173 7.77734C31.6254 7.77734 31.3246 7.83431 31.115 7.94824C30.9099 8.06217 30.7185 8.20345 30.5407 8.37207ZM43.7202 11.6875V13H37.0483V11.8721L40.2885 8.33789C40.644 7.93685 40.9243 7.59049 41.1293 7.29883C41.3344 7.00716 41.478 6.74512 41.56 6.5127C41.6466 6.27572 41.6899 6.04557 41.6899 5.82227C41.6899 5.50781 41.6306 5.2321 41.5121 4.99512C41.3982 4.75358 41.2296 4.56445 41.0063 4.42773C40.783 4.28646 40.5118 4.21582 40.1928 4.21582C39.8237 4.21582 39.5138 4.29557 39.2631 4.45508C39.0125 4.61458 38.8233 4.83561 38.6957 5.11816C38.5681 5.39616 38.5043 5.71517 38.5043 6.0752H36.8569C36.8569 5.49642 36.989 4.96777 37.2534 4.48926C37.5177 4.00618 37.9005 3.62337 38.4018 3.34082C38.9031 3.05371 39.5069 2.91016 40.2133 2.91016C40.8787 2.91016 41.4438 3.02181 41.9086 3.24512C42.3735 3.46842 42.7267 3.78516 42.9682 4.19531C43.2143 4.60547 43.3373 5.09082 43.3373 5.65137C43.3373 5.96126 43.2872 6.26888 43.187 6.57422C43.0867 6.87956 42.9431 7.1849 42.7563 7.49023C42.574 7.79102 42.3575 8.09408 42.1069 8.39941C41.8562 8.7002 41.5805 9.00553 41.2797 9.31543L39.1264 11.6875H43.7202ZM50.7811 8.37207L49.4686 8.05078L50.0087 3.04688H55.3749V4.44141H51.3759L51.1024 6.88184C51.2574 6.79069 51.4716 6.70182 51.745 6.61523C52.0184 6.52409 52.3306 6.47852 52.6815 6.47852C53.1509 6.47852 53.5702 6.55599 53.9393 6.71094C54.313 6.86133 54.6298 7.08236 54.8895 7.37402C55.1493 7.66113 55.3475 8.01204 55.4843 8.42676C55.621 8.83691 55.6893 9.29948 55.6893 9.81445C55.6893 10.2747 55.621 10.7054 55.4843 11.1064C55.3521 11.5075 55.1516 11.8607 54.8827 12.166C54.6138 12.4714 54.2743 12.7106 53.8641 12.8838C53.4585 13.0524 52.9777 13.1367 52.4218 13.1367C52.007 13.1367 51.6083 13.0775 51.2255 12.959C50.8472 12.8359 50.5077 12.6559 50.2069 12.4189C49.9061 12.1774 49.6646 11.8812 49.4823 11.5303C49.3 11.1748 49.1952 10.7669 49.1679 10.3066H50.7811C50.8221 10.6302 50.911 10.9059 51.0477 11.1338C51.189 11.3571 51.3759 11.528 51.6083 11.6465C51.8407 11.765 52.1096 11.8242 52.4149 11.8242C52.6929 11.8242 52.9322 11.7764 53.1327 11.6807C53.3332 11.5804 53.4996 11.4391 53.6317 11.2568C53.7684 11.07 53.8687 10.8512 53.9325 10.6006C54.0009 10.3499 54.035 10.0719 54.035 9.7666C54.035 9.47493 53.9963 9.20833 53.9188 8.9668C53.8459 8.72526 53.7343 8.51562 53.5839 8.33789C53.438 8.16016 53.2535 8.02344 53.0302 7.92773C52.8068 7.82747 52.5494 7.77734 52.2577 7.77734C51.8658 7.77734 51.565 7.83431 51.3554 7.94824C51.1503 8.06217 50.9589 8.20345 50.7811 8.37207ZM59.0182 8.37207L57.7057 8.05078L58.2457 3.04688H63.6119V4.44141H59.6129L59.3395 6.88184C59.4944 6.79069 59.7086 6.70182 59.982 6.61523C60.2555 6.52409 60.5676 6.47852 60.9186 6.47852C61.388 6.47852 61.8072 6.55599 62.1764 6.71094C62.5501 6.86133 62.8668 7.08236 63.1266 7.37402C63.3863 7.66113 63.5846 8.01204 63.7213 8.42676C63.858 8.83691 63.9264 9.29948 63.9264 9.81445C63.9264 10.2747 63.858 10.7054 63.7213 11.1064C63.5891 11.5075 63.3886 11.8607 63.1197 12.166C62.8508 12.4714 62.5113 12.7106 62.1012 12.8838C61.6956 13.0524 61.2148 13.1367 60.6588 13.1367C60.2441 13.1367 59.8453 13.0775 59.4625 12.959C59.0842 12.8359 58.7447 12.6559 58.4439 12.4189C58.1432 12.1774 57.9016 11.8812 57.7193 11.5303C57.537 11.1748 57.4322 10.7669 57.4049 10.3066H59.0182C59.0592 10.6302 59.148 10.9059 59.2848 11.1338C59.426 11.3571 59.6129 11.528 59.8453 11.6465C60.0777 11.765 60.3466 11.8242 60.652 11.8242C60.9299 11.8242 61.1692 11.7764 61.3697 11.6807C61.5702 11.5804 61.7366 11.4391 61.8688 11.2568C62.0055 11.07 62.1057 10.8512 62.1695 10.6006C62.2379 10.3499 62.2721 10.0719 62.2721 9.7666C62.2721 9.47493 62.2333 9.20833 62.1559 8.9668C62.0829 8.72526 61.9713 8.51562 61.8209 8.33789C61.6751 8.16016 61.4905 8.02344 61.2672 7.92773C61.0439 7.82747 60.7864 7.77734 60.4947 7.77734C60.1028 7.77734 59.802 7.83431 59.5924 7.94824C59.3873 8.06217 59.1959 8.20345 59.0182 8.37207ZM71.0215 8.37207L69.709 8.05078L70.2491 3.04688H75.6153V4.44141H71.6162L71.3428 6.88184C71.4978 6.79069 71.712 6.70182 71.9854 6.61523C72.2588 6.52409 72.571 6.47852 72.9219 6.47852C73.3913 6.47852 73.8106 6.55599 74.1797 6.71094C74.5534 6.86133 74.8702 7.08236 75.1299 7.37402C75.3897 7.66113 75.5879 8.01204 75.7246 8.42676C75.8614 8.83691 75.9297 9.29948 75.9297 9.81445C75.9297 10.2747 75.8614 10.7054 75.7246 11.1064C75.5925 11.5075 75.392 11.8607 75.1231 12.166C74.8542 12.4714 74.5147 12.7106 74.1045 12.8838C73.6989 13.0524 73.2181 13.1367 72.6621 13.1367C72.2474 13.1367 71.8487 13.0775 71.4659 12.959C71.0876 12.8359 70.7481 12.6559 70.4473 12.4189C70.1465 12.1774 69.905 11.8812 69.7227 11.5303C69.5404 11.1748 69.4356 10.7669 69.4082 10.3066H71.0215C71.0625 10.6302 71.1514 10.9059 71.2881 11.1338C71.4294 11.3571 71.6162 11.528 71.8487 11.6465C72.0811 11.765 72.35 11.8242 72.6553 11.8242C72.9333 11.8242 73.1726 11.7764 73.3731 11.6807C73.5736 11.5804 73.7399 11.4391 73.8721 11.2568C74.0088 11.07 74.1091 10.8512 74.1729 10.6006C74.2412 10.3499 74.2754 10.0719 74.2754 9.7666C74.2754 9.47493 74.2367 9.20833 74.1592 8.9668C74.0863 8.72526 73.9746 8.51562 73.8243 8.33789C73.6784 8.16016 73.4939 8.02344 73.2705 7.92773C73.0472 7.82747 72.7898 7.77734 72.4981 7.77734C72.1062 7.77734 71.8054 7.83431 71.5957 7.94824C71.3907 8.06217 71.1993 8.20345 71.0215 8.37207ZM79.2586 8.37207L77.9461 8.05078L78.4861 3.04688H83.8523V4.44141H79.8533L79.5798 6.88184C79.7348 6.79069 79.949 6.70182 80.2224 6.61523C80.4959 6.52409 80.808 6.47852 81.1589 6.47852C81.6283 6.47852 82.0476 6.55599 82.4168 6.71094C82.7905 6.86133 83.1072 7.08236 83.367 7.37402C83.6267 7.66113 83.825 8.01204 83.9617 8.42676C84.0984 8.83691 84.1668 9.29948 84.1668 9.81445C84.1668 10.2747 84.0984 10.7054 83.9617 11.1064C83.8295 11.5075 83.629 11.8607 83.3601 12.166C83.0912 12.4714 82.7517 12.7106 82.3416 12.8838C81.936 13.0524 81.4552 13.1367 80.8992 13.1367C80.4845 13.1367 80.0857 13.0775 79.7029 12.959C79.3246 12.8359 78.9851 12.6559 78.6843 12.4189C78.3836 12.1774 78.142 11.8812 77.9597 11.5303C77.7774 11.1748 77.6726 10.7669 77.6453 10.3066H79.2586C79.2996 10.6302 79.3884 10.9059 79.5252 11.1338C79.6664 11.3571 79.8533 11.528 80.0857 11.6465C80.3181 11.765 80.587 11.8242 80.8923 11.8242C81.1703 11.8242 81.4096 11.7764 81.6101 11.6807C81.8106 11.5804 81.977 11.4391 82.1091 11.2568C82.2459 11.07 82.3461 10.8512 82.4099 10.6006C82.4783 10.3499 82.5125 10.0719 82.5125 9.7666C82.5125 9.47493 82.4737 9.20833 82.3963 8.9668C82.3233 8.72526 82.2117 8.51562 82.0613 8.33789C81.9155 8.16016 81.7309 8.02344 81.5076 7.92773C81.2843 7.82747 81.0268 7.77734 80.7351 7.77734C80.3432 7.77734 80.0424 7.83431 79.8328 7.94824C79.6277 8.06217 79.4363 8.20345 79.2586 8.37207ZM92.438 11.6875V13H85.7661V11.8721L89.0063 8.33789C89.3618 7.93685 89.6421 7.59049 89.8471 7.29883C90.0522 7.00716 90.1958 6.74512 90.2778 6.5127C90.3644 6.27572 90.4077 6.04557 90.4077 5.82227C90.4077 5.50781 90.3484 5.2321 90.23 4.99512C90.116 4.75358 89.9474 4.56445 89.7241 4.42773C89.5008 4.28646 89.2296 4.21582 88.9106 4.21582C88.5415 4.21582 88.2316 4.29557 87.9809 4.45508C87.7303 4.61458 87.5412 4.83561 87.4136 5.11816C87.2859 5.39616 87.2221 5.71517 87.2221 6.0752H85.5747C85.5747 5.49642 85.7068 4.96777 85.9712 4.48926C86.2355 4.00618 86.6183 3.62337 87.1196 3.34082C87.6209 3.05371 88.2247 2.91016 88.9311 2.91016C89.5965 2.91016 90.1616 3.02181 90.6264 3.24512C91.0913 3.46842 91.4445 3.78516 91.686 4.19531C91.9321 4.60547 92.0552 5.09082 92.0552 5.65137C92.0552 5.96126 92.005 6.26888 91.9048 6.57422C91.8045 6.87956 91.6609 7.1849 91.4741 7.49023C91.2918 7.79102 91.0753 8.09408 90.8247 8.39941C90.574 8.7002 90.2983 9.00553 89.9975 9.31543L87.8442 11.6875H92.438ZM95.3293 11.7012H95.466C96.0949 11.7012 96.619 11.6191 97.0383 11.4551C97.4621 11.2865 97.7994 11.054 98.05 10.7578C98.3007 10.4616 98.4807 10.113 98.59 9.71191C98.6994 9.31087 98.7541 8.87565 98.7541 8.40625V6.69043C98.7541 6.28483 98.7108 5.92936 98.6242 5.62402C98.5422 5.31413 98.4237 5.05664 98.2688 4.85156C98.1184 4.64193 97.9429 4.4847 97.7424 4.37988C97.5464 4.27507 97.3345 4.22266 97.1066 4.22266C96.856 4.22266 96.6304 4.27962 96.4299 4.39355C96.2339 4.50293 96.0676 4.6556 95.9309 4.85156C95.7987 5.04297 95.6962 5.26855 95.6232 5.52832C95.5549 5.78353 95.5207 6.05697 95.5207 6.34863C95.5207 6.62207 95.5526 6.88639 95.6164 7.1416C95.6848 7.39225 95.785 7.61556 95.9172 7.81152C96.0494 8.00749 96.2157 8.16243 96.4162 8.27637C96.6167 8.3903 96.8514 8.44727 97.1203 8.44727C97.3755 8.44727 97.6102 8.39941 97.8244 8.30371C98.0386 8.20345 98.2255 8.06901 98.385 7.90039C98.5445 7.73177 98.6698 7.54264 98.7609 7.33301C98.8521 7.12337 98.9022 6.90918 98.9113 6.69043L99.5402 6.88184C99.5402 7.22819 99.4673 7.56999 99.3215 7.90723C99.1802 8.23991 98.982 8.54525 98.7268 8.82324C98.4761 9.09668 98.1822 9.31543 97.8449 9.47949C97.5122 9.64355 97.1499 9.72559 96.758 9.72559C96.2841 9.72559 95.8648 9.63672 95.5002 9.45898C95.1402 9.27669 94.8394 9.0306 94.5979 8.7207C94.3609 8.41081 94.1831 8.05534 94.0647 7.6543C93.9462 7.25326 93.8869 6.83171 93.8869 6.38965C93.8869 5.91113 93.9598 5.46224 94.1057 5.04297C94.2515 4.6237 94.4634 4.25456 94.7414 3.93555C95.0194 3.61198 95.3566 3.36133 95.7531 3.18359C96.1542 3.0013 96.6076 2.91016 97.1135 2.91016C97.6512 2.91016 98.1229 3.01497 98.5285 3.22461C98.9341 3.43424 99.2759 3.72363 99.5539 4.09277C99.8319 4.46191 100.042 4.8903 100.183 5.37793C100.324 5.86556 100.395 6.38965 100.395 6.9502V7.53125C100.395 8.11914 100.342 8.68652 100.238 9.2334C100.133 9.77572 99.9618 10.2793 99.7248 10.7441C99.4924 11.2044 99.1848 11.61 98.802 11.9609C98.4237 12.3073 97.9589 12.5785 97.4074 12.7744C96.8605 12.9658 96.218 13.0615 95.4797 13.0615H95.3293V11.7012ZM110.983 2.98535H111.188V4.33203H111.072C110.484 4.33203 109.976 4.42318 109.548 4.60547C109.124 4.78776 108.775 5.03841 108.502 5.35742C108.228 5.67643 108.023 6.05013 107.886 6.47852C107.754 6.90234 107.688 7.35352 107.688 7.83203V9.39746C107.688 9.79395 107.731 10.1449 107.818 10.4502C107.905 10.751 108.025 11.0039 108.18 11.209C108.34 11.4095 108.522 11.5622 108.727 11.667C108.932 11.7718 109.153 11.8242 109.39 11.8242C109.636 11.8242 109.86 11.7741 110.06 11.6738C110.261 11.569 110.432 11.4255 110.573 11.2432C110.714 11.0609 110.821 10.8444 110.894 10.5938C110.967 10.3431 111.004 10.0697 111.004 9.77344C111.004 9.49089 110.967 9.22656 110.894 8.98047C110.826 8.72982 110.723 8.51107 110.587 8.32422C110.45 8.13281 110.279 7.9847 110.074 7.87988C109.873 7.77051 109.641 7.71582 109.377 7.71582C109.048 7.71582 108.75 7.79329 108.481 7.94824C108.217 8.10319 108.003 8.30599 107.839 8.55664C107.679 8.80273 107.592 9.06478 107.579 9.34277L106.95 9.1377C106.986 8.71387 107.08 8.33333 107.23 7.99609C107.385 7.65885 107.588 7.37174 107.839 7.13477C108.089 6.89779 108.379 6.71777 108.707 6.59473C109.039 6.46712 109.404 6.40332 109.8 6.40332C110.284 6.40332 110.703 6.49447 111.058 6.67676C111.414 6.85905 111.708 7.10742 111.94 7.42188C112.177 7.73177 112.353 8.08724 112.466 8.48828C112.585 8.88477 112.644 9.29948 112.644 9.73242C112.644 10.2109 112.571 10.6576 112.425 11.0723C112.28 11.4824 112.065 11.8424 111.783 12.1523C111.505 12.4622 111.165 12.7038 110.764 12.877C110.368 13.0501 109.917 13.1367 109.411 13.1367C108.878 13.1367 108.401 13.0342 107.982 12.8291C107.567 12.624 107.214 12.3415 106.923 11.9814C106.635 11.6214 106.417 11.2067 106.266 10.7373C106.116 10.2679 106.041 9.77116 106.041 9.24707V8.56348C106.041 7.80697 106.136 7.09375 106.328 6.42383C106.519 5.74935 106.813 5.15462 107.21 4.63965C107.611 4.12467 108.123 3.72135 108.748 3.42969C109.372 3.13346 110.117 2.98535 110.983 2.98535ZM120.731 7.18945V8.81641C120.731 9.5957 120.653 10.2611 120.498 10.8125C120.348 11.3594 120.129 11.8037 119.842 12.1455C119.555 12.4873 119.211 12.738 118.81 12.8975C118.413 13.057 117.969 13.1367 117.477 13.1367C117.085 13.1367 116.72 13.0866 116.383 12.9863C116.05 12.8861 115.75 12.7288 115.481 12.5146C115.212 12.3005 114.982 12.0247 114.79 11.6875C114.604 11.3457 114.458 10.9378 114.353 10.4639C114.253 9.98991 114.202 9.44076 114.202 8.81641V7.18945C114.202 6.4056 114.28 5.74479 114.435 5.20703C114.59 4.66471 114.811 4.22493 115.098 3.8877C115.385 3.5459 115.727 3.29753 116.123 3.14258C116.524 2.98763 116.971 2.91016 117.463 2.91016C117.86 2.91016 118.224 2.96029 118.557 3.06055C118.894 3.15625 119.195 3.30892 119.459 3.51855C119.728 3.72819 119.956 4.00163 120.143 4.33887C120.334 4.67155 120.48 5.07487 120.58 5.54883C120.681 6.01823 120.731 6.5651 120.731 7.18945ZM119.083 9.04883V6.94336C119.083 6.54688 119.061 6.19824 119.015 5.89746C118.969 5.59212 118.901 5.33464 118.81 5.125C118.723 4.91081 118.614 4.73763 118.482 4.60547C118.35 4.46875 118.199 4.37077 118.031 4.31152C117.862 4.24772 117.673 4.21582 117.463 4.21582C117.208 4.21582 116.98 4.26595 116.78 4.36621C116.579 4.46191 116.411 4.61686 116.274 4.83105C116.137 5.04525 116.032 5.3278 115.959 5.67871C115.891 6.02507 115.857 6.44661 115.857 6.94336V9.04883C115.857 9.44987 115.88 9.80306 115.925 10.1084C115.971 10.4137 116.039 10.6758 116.13 10.8945C116.221 11.1087 116.331 11.2865 116.458 11.4277C116.591 11.5645 116.741 11.6647 116.91 11.7285C117.083 11.7923 117.272 11.8242 117.477 11.8242C117.737 11.8242 117.967 11.7741 118.167 11.6738C118.368 11.5736 118.536 11.4141 118.673 11.1953C118.81 10.972 118.912 10.6826 118.981 10.3271C119.049 9.97168 119.083 9.54557 119.083 9.04883ZM128.968 7.18945V8.81641C128.968 9.5957 128.89 10.2611 128.735 10.8125C128.585 11.3594 128.366 11.8037 128.079 12.1455C127.792 12.4873 127.448 12.738 127.047 12.8975C126.65 13.057 126.206 13.1367 125.714 13.1367C125.322 13.1367 124.957 13.0866 124.62 12.9863C124.288 12.8861 123.987 12.7288 123.718 12.5146C123.449 12.3005 123.219 12.0247 123.027 11.6875C122.841 11.3457 122.695 10.9378 122.59 10.4639C122.49 9.98991 122.44 9.44076 122.44 8.81641V7.18945C122.44 6.4056 122.517 5.74479 122.672 5.20703C122.827 4.66471 123.048 4.22493 123.335 3.8877C123.622 3.5459 123.964 3.29753 124.36 3.14258C124.761 2.98763 125.208 2.91016 125.7 2.91016C126.097 2.91016 126.461 2.96029 126.794 3.06055C127.131 3.15625 127.432 3.30892 127.696 3.51855C127.965 3.72819 128.193 4.00163 128.38 4.33887C128.571 4.67155 128.717 5.07487 128.817 5.54883C128.918 6.01823 128.968 6.5651 128.968 7.18945ZM127.32 9.04883V6.94336C127.32 6.54688 127.298 6.19824 127.252 5.89746C127.206 5.59212 127.138 5.33464 127.047 5.125C126.96 4.91081 126.851 4.73763 126.719 4.60547C126.587 4.46875 126.436 4.37077 126.268 4.31152C126.099 4.24772 125.91 4.21582 125.7 4.21582C125.445 4.21582 125.217 4.26595 125.017 4.36621C124.816 4.46191 124.648 4.61686 124.511 4.83105C124.374 5.04525 124.269 5.3278 124.196 5.67871C124.128 6.02507 124.094 6.44661 124.094 6.94336V9.04883C124.094 9.44987 124.117 9.80306 124.162 10.1084C124.208 10.4137 124.276 10.6758 124.367 10.8945C124.458 11.1087 124.568 11.2865 124.695 11.4277C124.828 11.5645 124.978 11.6647 125.147 11.7285C125.32 11.7923 125.509 11.8242 125.714 11.8242C125.974 11.8242 126.204 11.7741 126.404 11.6738C126.605 11.5736 126.774 11.4141 126.91 11.1953C127.047 10.972 127.149 10.6826 127.218 10.3271C127.286 9.97168 127.32 9.54557 127.32 9.04883ZM137.205 7.18945V8.81641C137.205 9.5957 137.127 10.2611 136.972 10.8125C136.822 11.3594 136.603 11.8037 136.316 12.1455C136.029 12.4873 135.685 12.738 135.284 12.8975C134.887 13.057 134.443 13.1367 133.951 13.1367C133.559 13.1367 133.194 13.0866 132.857 12.9863C132.525 12.8861 132.224 12.7288 131.955 12.5146C131.686 12.3005 131.456 12.0247 131.264 11.6875C131.078 11.3457 130.932 10.9378 130.827 10.4639C130.727 9.98991 130.677 9.44076 130.677 8.81641V7.18945C130.677 6.4056 130.754 5.74479 130.909 5.20703C131.064 4.66471 131.285 4.22493 131.572 3.8877C131.859 3.5459 132.201 3.29753 132.597 3.14258C132.998 2.98763 133.445 2.91016 133.937 2.91016C134.334 2.91016 134.698 2.96029 135.031 3.06055C135.368 3.15625 135.669 3.30892 135.933 3.51855C136.202 3.72819 136.43 4.00163 136.617 4.33887C136.808 4.67155 136.954 5.07487 137.054 5.54883C137.155 6.01823 137.205 6.5651 137.205 7.18945ZM135.557 9.04883V6.94336C135.557 6.54688 135.535 6.19824 135.489 5.89746C135.443 5.59212 135.375 5.33464 135.284 5.125C135.197 4.91081 135.088 4.73763 134.956 4.60547C134.824 4.46875 134.673 4.37077 134.505 4.31152C134.336 4.24772 134.147 4.21582 133.937 4.21582C133.682 4.21582 133.454 4.26595 133.254 4.36621C133.053 4.46191 132.885 4.61686 132.748 4.83105C132.611 5.04525 132.506 5.3278 132.433 5.67871C132.365 6.02507 132.331 6.44661 132.331 6.94336V9.04883C132.331 9.44987 132.354 9.80306 132.399 10.1084C132.445 10.4137 132.513 10.6758 132.604 10.8945C132.695 11.1087 132.805 11.2865 132.932 11.4277C133.065 11.5645 133.215 11.6647 133.384 11.7285C133.557 11.7923 133.746 11.8242 133.951 11.8242C134.211 11.8242 134.441 11.7741 134.641 11.6738C134.842 11.5736 135.011 11.4141 135.147 11.1953C135.284 10.972 135.387 10.6826 135.455 10.3271C135.523 9.97168 135.557 9.54557 135.557 9.04883Z" fill="#757575"/>
<path d="M8.5 0H1.5C0.672848 0 0 0.672848 0 1.5V14.5C0 15.3272 0.672848 16 1.5 16H8.5C9.32715 16 10 15.3272 10 14.5V1.5C10 0.672848 9.32715 0 8.5 0ZM1.5 1H8.5C8.77588 1 9 1.22412 9 1.5V12H1V1.5C1 1.22412 1.22412 1 1.5 1ZM8.5 15H1.5C1.22412 15 1 14.7759 1 14.5V13H9V14.5C9 14.7759 8.77588 15 8.5 15Z" fill="#757575"/>
<path d="M2.35355 13.7389C2.54882 13.9213 2.54882 14.2169 2.35355 14.3992C2.15828 14.5816 1.84172 14.5816 1.64645 14.3992C1.45118 14.2169 1.45118 13.9213 1.64645 13.7389C1.84172 13.5566 2.15828 13.5566 2.35355 13.7389Z" fill="#757575"/>
</svg>
